<svg xmlns="http://www.w3.org/2000/svg" width="960" height="720" viewBox="0 0 960 720"><defs><style>text { font-family: ui-monospace, "SF Mono", Menlo, Consolas, monospace; }.sans { font-family: system-ui, -apple-system, "Segoe UI", sans-serif; }</style></defs><rect width="960" height="720" fill="#191f26"/><rect x="0" y="0" width="960" height="58" fill="#191f26"/><line x1="0" y1="57" x2="960" y2="57" stroke="#374350" stroke-width="1"/><text x="32" y="36" font-size="22" font-weight="600" fill="#e7ebf0" letter-spacing="-0.5">s<tspan fill="#46a3a0">i</tspan>ft</text><text x="84" y="36" font-size="12" fill="#94a0ad" class="sans">transparent alert triage</text><text x="800" y="36" font-size="12" fill="#94a0ad">Dashboard</text><text x="864" y="36" font-size="12" fill="#94a0ad">Cases</text><text x="920" y="36" font-size="12" fill="#46a3a0">admin</text><text x="32" y="88" font-size="13" fill="#94a0ad">← Dashboard</text><text x="32" y="116" font-size="17" font-weight="600" fill="#e7ebf0" class="sans">Credential dumping — LSASS access</text><text x="32" y="134" font-size="12" fill="#94a0ad">Alert #7 · wazuh · dc01 · 2m ago</text><rect x="32" y="154" width="420" height="340" rx="10" fill="#1f262e" stroke="#374350" stroke-width="1"/><text x="50" y="178" font-size="10" font-weight="700" fill="#6c7884" letter-spacing="0.8">ALERT FACTS</text><text x="50" y="200" font-size="11.5" fill="#6c7884">Source</text><text x="152" y="200" font-size="12.5" fill="#e7ebf0">wazuh</text><text x="50" y="228" font-size="11.5" fill="#6c7884">Rule ID</text><text x="152" y="228" font-size="12.5" fill="#e7ebf0">92052</text><text x="50" y="256" font-size="11.5" fill="#6c7884">Level</text><text x="152" y="256" font-size="12.5" fill="#e7ebf0">12 / 15</text><text x="50" y="284" font-size="11.5" fill="#6c7884">Timestamp</text><text x="152" y="284" font-size="12.5" fill="#e7ebf0">2026-06-16 22:14:07 UTC</text><text x="50" y="312" font-size="11.5" fill="#6c7884">Source IP</text><text x="152" y="312" font-size="12.5" fill="#e7ebf0">45.146.165.37</text><text x="50" y="340" font-size="11.5" fill="#6c7884">User</text><text x="152" y="340" font-size="12.5" fill="#e7ebf0">svc_backup</text><text x="50" y="368" font-size="11.5" fill="#6c7884">Target</text><text x="152" y="368" font-size="12.5" fill="#e7ebf0">dc01 (10.0.0.9)</text><text x="50" y="396" font-size="11.5" fill="#6c7884">File hash</text><text x="152" y="396" font-size="12.5" fill="#e7ebf0">abc123def456…</text><text x="50" y="424" font-size="11.5" fill="#6c7884">Location</text><text x="152" y="424" font-size="12.5" fill="#e7ebf0">WinEvtLog</text><text x="32" y="516" font-size="10" font-weight="700" fill="#6c7884" letter-spacing="0.8">ANALYST FEEDBACK</text><rect x="32" y="524" width="140" height="36" rx="8" fill="#1f262e" stroke="#d64541" stroke-width="1"/><text x="46" y="546" font-size="12" font-weight="600" fill="#f0a4a1">✓ True Positive</text><rect x="184" y="524" width="144" height="36" rx="8" fill="#1f262e" stroke="#2f7d52" stroke-width="1"/><text x="198" y="546" font-size="12" font-weight="600" fill="#7ed3a3">✗ False Positive</text><text x="32" y="584" font-size="10" font-weight="700" fill="#6c7884" letter-spacing="0.8">SNOOZE</text><rect x="32" y="592" width="94" height="36" rx="8" fill="#1f262e" stroke="#374350" stroke-width="1"/><text x="46" y="614" font-size="12" fill="#94a0ad">8 hours</text><rect x="138" y="592" width="94" height="36" rx="8" fill="#1f262e" stroke="#374350" stroke-width="1"/><text x="152" y="614" font-size="12" fill="#94a0ad">24 hours</text><rect x="244" y="592" width="94" height="36" rx="8" fill="#1f262e" stroke="#374350" stroke-width="1"/><text x="258" y="614" font-size="12" fill="#94a0ad">7 days</text><rect x="478" y="154" width="450" height="560" rx="10" fill="#f6f4ec" stroke="#d8d2c2" stroke-width="1" filter="url(#shadow)"/><text x="703" y="184" text-anchor="middle" font-size="14" font-weight="700" fill="#23282d">SIFT TRIAGE RECEIPT</text><text x="703" y="201" text-anchor="middle" font-size="11" fill="#7c8088">Alert #7 · wazuh · 2026-06-16</text><line x1="498" y1="212" x2="908" y2="212" stroke="#d8d2c2" stroke-width="1" stroke-dasharray="5,3"/><text x="498" y="230" font-size="12" font-weight="600" fill="#23282d">Severity lvl 12</text><line x1="607" y1="227" x2="868" y2="227" stroke="#d8d2c2" stroke-width="1" stroke-dasharray="1,3"/><text x="910" y="230" text-anchor="end" font-size="12" font-weight="700" fill="#d64541">+60</text><text x="498" y="262" font-size="12" font-weight="600" fill="#23282d">Critical asset: dc01</text><line x1="642" y1="259" x2="868" y2="259" stroke="#d8d2c2" stroke-width="1" stroke-dasharray="1,3"/><text x="910" y="262" text-anchor="end" font-size="12" font-weight="700" fill="#d64541">+30</text><text x="498" y="294" font-size="12" font-weight="600" fill="#23282d">Known bad IP</text><line x1="586" y1="291" x2="868" y2="291" stroke="#d8d2c2" stroke-width="1" stroke-dasharray="1,3"/><text x="910" y="294" text-anchor="end" font-size="12" font-weight="700" fill="#d64541">+35</text><text x="498" y="326" font-size="12" font-weight="600" fill="#23282d">Off-hours (22:14 UTC)</text><line x1="649" y1="323" x2="868" y2="323" stroke="#d8d2c2" stroke-width="1" stroke-dasharray="1,3"/><text x="910" y="326" text-anchor="end" font-size="12" font-weight="700" fill="#d64541">+15</text><text x="498" y="358" font-size="12" font-weight="600" fill="#23282d">New src for svc_backup</text><line x1="656" y1="355" x2="868" y2="355" stroke="#d8d2c2" stroke-width="1" stroke-dasharray="1,3"/><text x="910" y="358" text-anchor="end" font-size="12" font-weight="700" fill="#d64541">+10</text><text x="498" y="390" font-size="12" font-weight="600" fill="#23282d">Rule noisy? No</text><line x1="600" y1="387" x2="868" y2="387" stroke="#d8d2c2" stroke-width="1" stroke-dasharray="1,3"/><text x="910" y="390" text-anchor="end" font-size="12" font-weight="700" fill="#7c8088">+0</text><text x="498" y="422" font-size="12" font-weight="600" fill="#23282d">Allowlisted? No</text><line x1="607" y1="419" x2="868" y2="419" stroke="#d8d2c2" stroke-width="1" stroke-dasharray="1,3"/><text x="910" y="422" text-anchor="end" font-size="12" font-weight="700" fill="#7c8088">+0</text><line x1="498" y1="458" x2="908" y2="458" stroke="#23282d" stroke-width="2"/><text x="498" y="476" font-size="15" font-weight="700" fill="#23282d">TOTAL</text><text x="910" y="476" text-anchor="end" font-size="15" font-weight="700" fill="#23282d">142</text><g transform="rotate(-4.5,703,524)"><rect x="643" y="496" width="120" height="52" rx="6" fill="none" stroke="#d64541" stroke-width="3"/><text x="703" y="526" text-anchor="middle" font-size="19" font-weight="700" fill="#d64541" letter-spacing="2">ESCALATE</text><text x="703" y="542" text-anchor="middle" font-size="9" fill="#7c8088" letter-spacing="1">SCORE ≥ 100</text></g></svg>