<svg xmlns="http://www.w3.org/2000/svg" width="960" height="580" viewBox="0 0 960 580"><defs><style>text { font-family: ui-monospace, "SF Mono", Menlo, Consolas, monospace; }.sans { font-family: system-ui, -apple-system, "Segoe UI", sans-serif; }</style></defs><rect width="960" height="580" fill="#191f26"/><rect x="0" y="0" width="960" height="58" fill="#191f26"/><line x1="0" y1="57" x2="960" y2="57" stroke="#374350" stroke-width="1"/><text x="32" y="36" font-size="22" font-weight="600" fill="#e7ebf0" letter-spacing="-0.5">s<tspan fill="#46a3a0">i</tspan>ft</text><text x="84" y="36" font-size="12" fill="#94a0ad" class="sans">transparent alert triage</text><text x="800" y="36" font-size="12" fill="#94a0ad">Dashboard</text><text x="864" y="36" font-size="12" fill="#94a0ad">Cases</text><text x="920" y="36" font-size="12" fill="#46a3a0">admin</text><text x="32" y="90" font-size="17" font-weight="600" fill="#e7ebf0" class="sans">Cases</text><text x="32" y="108" font-size="12" fill="#94a0ad">Alerts grouped by rule × target — pivot to find patterns</text><text x="32" y="136" font-size="11" fill="#6c7884">GROUP BY</text><rect x="96" y="120" width="100" height="28" rx="6" fill="#1f262e" stroke="#46a3a0" stroke-width="1"/><text x="108" y="138" font-size="12" fill="#e7ebf0">rule_id ▾</text><rect x="206" y="120" width="100" height="28" rx="6" fill="#1f262e" stroke="#374350" stroke-width="1"/><text x="218" y="138" font-size="12" fill="#94a0ad">target ▾</text><rect x="316" y="120" width="100" height="28" rx="6" fill="#1f262e" stroke="#374350" stroke-width="1"/><text x="328" y="138" font-size="12" fill="#94a0ad">src_user ▾</text><rect x="32" y="160" width="896" height="388" rx="10" fill="#191f26" stroke="#374350" stroke-width="1"/><rect x="32" y="160" width="896" height="36" rx="10" fill="#1f262e"/><rect x="32" y="178" width="896" height="18" fill="#1f262e"/><text x="48" y="183" font-size="10" font-weight="700" fill="#6c7884" letter-spacing="0.7">RULE</text><text x="288" y="183" font-size="10" font-weight="700" fill="#6c7884" letter-spacing="0.7">ALERTS</text><text x="368" y="183" font-size="10" font-weight="700" fill="#6c7884" letter-spacing="0.7">FP RATE</text><text x="458" y="183" font-size="10" font-weight="700" fill="#6c7884" letter-spacing="0.7">HOSTS AFFECTED</text><text x="618" y="183" font-size="10" font-weight="700" fill="#6c7884" letter-spacing="0.7">WORST SCORE</text><text x="728" y="183" font-size="10" font-weight="700" fill="#6c7884" letter-spacing="0.7">LAST SEEN</text><text x="848" y="183" font-size="10" font-weight="700" fill="#6c7884" letter-spacing="0.7">VERDICT</text><line x1="32" y1="196" x2="928" y2="196" stroke="#374350" stroke-width="1"/><rect x="33" y="197" width="894" height="50" fill="#1f262e"/><rect x="32" y="197" width="3" height="50" fill="#d64541"/><text x="48" y="218" font-size="12.5" fill="#e7ebf0">92052 · Credential dumping</text><text x="328" y="218" text-anchor="end" font-size="13" font-weight="700" fill="#e7ebf0">5</text><text x="368" y="218" font-size="12" fill="#2f7d52">0%</text><text x="458" y="218" font-size="12" fill="#94a0ad">dc01, ws-03, srv-01…</text><text x="698" y="218" text-anchor="end" font-size="13" font-weight="700" fill="#d64541">142</text><text x="728" y="218" font-size="12" fill="#94a0ad">2m ago</text><rect x="848" y="204" width="82" height="20" rx="10" fill="#d6454122" stroke="#d64541" stroke-width="1"/><text x="889" y="218" text-anchor="middle" font-size="10" font-weight="700" fill="#d64541" letter-spacing="0.8">ESCALATE</text><line x1="32" y1="247" x2="928" y2="247" stroke="#252e38" stroke-width="1"/><rect x="32" y="247" width="3" height="50" fill="#d64541"/><text x="48" y="268" font-size="12.5" fill="#e7ebf0">2024897 · Cobalt Strike Beacon</text><text x="328" y="268" text-anchor="end" font-size="13" font-weight="700" fill="#e7ebf0">3</text><text x="368" y="268" font-size="12" fill="#2f7d52">0%</text><text x="458" y="268" font-size="12" fill="#94a0ad">10.0.0.5, 10.0.0.8</text><text x="698" y="268" text-anchor="end" font-size="13" font-weight="700" fill="#d64541">138</text><text x="728" y="268" font-size="12" fill="#94a0ad">5m ago</text><rect x="848" y="254" width="82" height="20" rx="10" fill="#d6454122" stroke="#d64541" stroke-width="1"/><text x="889" y="268" text-anchor="middle" font-size="10" font-weight="700" fill="#d64541" letter-spacing="0.8">ESCALATE</text><line x1="32" y1="297" x2="928" y2="297" stroke="#252e38" stroke-width="1"/><rect x="32" y="297" width="3" height="50" fill="#d99a2b"/><text x="48" y="318" font-size="12.5" fill="#e7ebf0">5763 · Brute-force SSH</text><text x="328" y="318" text-anchor="end" font-size="13" font-weight="700" fill="#e7ebf0">8</text><text x="368" y="318" font-size="12" fill="#d99a2b">12%</text><text x="458" y="318" font-size="12" fill="#94a0ad">web-01, web-02, dev-01</text><text x="698" y="318" text-anchor="end" font-size="13" font-weight="700" fill="#d99a2b">81</text><text x="728" y="318" font-size="12" fill="#94a0ad">18m ago</text><rect x="848" y="304" width="70" height="20" rx="10" fill="#d99a2b22" stroke="#d99a2b" stroke-width="1"/><text x="883" y="318" text-anchor="middle" font-size="10" font-weight="700" fill="#d99a2b" letter-spacing="0.8">REVIEW</text><line x1="32" y1="347" x2="928" y2="347" stroke="#252e38" stroke-width="1"/><rect x="32" y="347" width="3" height="50" fill="#7f8b98"/><text x="48" y="368" font-size="12.5" fill="#e7ebf0">5501 · Sudo command</text><text x="328" y="368" text-anchor="end" font-size="13" font-weight="700" fill="#e7ebf0">4</text><text x="368" y="368" font-size="12" fill="#7f8b98">75%</text><text x="458" y="368" font-size="12" fill="#94a0ad">dev-01, dev-02</text><text x="698" y="368" text-anchor="end" font-size="13" font-weight="700" fill="#7f8b98">22</text><text x="728" y="368" font-size="12" fill="#94a0ad">44m ago</text><rect x="848" y="354" width="50" height="20" rx="10" fill="#7f8b9822" stroke="#7f8b98" stroke-width="1"/><text x="873" y="368" text-anchor="middle" font-size="10" font-weight="700" fill="#7f8b98" letter-spacing="0.8">JUNK</text><line x1="32" y1="397" x2="928" y2="397" stroke="#252e38" stroke-width="1"/><rect x="32" y="397" width="3" height="50" fill="#7f8b98"/><text x="48" y="418" font-size="12.5" fill="#e7ebf0">554 · File modified (syscheck)</text><text x="328" y="418" text-anchor="end" font-size="13" font-weight="700" fill="#e7ebf0">2</text><text x="368" y="418" font-size="12" fill="#7f8b98">50%</text><text x="458" y="418" font-size="12" fill="#94a0ad">prod-db</text><text x="698" y="418" text-anchor="end" font-size="13" font-weight="700" fill="#7f8b98">18</text><text x="728" y="418" font-size="12" fill="#94a0ad">1h ago</text><rect x="848" y="404" width="50" height="20" rx="10" fill="#7f8b9822" stroke="#7f8b98" stroke-width="1"/><text x="873" y="418" text-anchor="middle" font-size="10" font-weight="700" fill="#7f8b98" letter-spacing="0.8">JUNK</text></svg>