<svg xmlns="http://www.w3.org/2000/svg" width="960" height="640" viewBox="0 0 960 640"><defs><style>text { font-family: ui-monospace, "SF Mono", Menlo, Consolas, monospace; }.sans { font-family: system-ui, -apple-system, "Segoe UI", sans-serif; }</style></defs><rect width="960" height="640" fill="#191f26"/><rect x="0" y="0" width="960" height="58" fill="#191f26"/><line x1="0" y1="57" x2="960" y2="57" stroke="#374350" stroke-width="1"/><text x="32" y="36" font-size="22" font-weight="600" fill="#e7ebf0" letter-spacing="-0.5">s<tspan fill="#46a3a0">i</tspan>ft</text><text x="84" y="36" font-size="12" fill="#94a0ad" class="sans">transparent alert triage</text><text x="800" y="36" font-size="12" fill="#94a0ad">Dashboard</text><text x="864" y="36" font-size="12" fill="#94a0ad">Cases</text><text x="920" y="36" font-size="12" fill="#46a3a0">admin</text><rect x="32" y="74" width="110" height="56" rx="8" fill="#1f262e" stroke="#374350" stroke-width="1"/><text x="46" y="104" font-size="20" font-weight="700" fill="#e7ebf0">14</text><text x="46" y="118" font-size="11" fill="#94a0ad" class="sans">Total</text><rect x="152" y="74" width="110" height="56" rx="8" fill="#1f262e" stroke="#374350" stroke-width="1"/><text x="166" y="104" font-size="20" font-weight="700" fill="#d64541">5</text><text x="166" y="118" font-size="11" fill="#94a0ad" class="sans">Escalate</text><rect x="272" y="74" width="110" height="56" rx="8" fill="#1f262e" stroke="#374350" stroke-width="1"/><text x="286" y="104" font-size="20" font-weight="700" fill="#d99a2b">6</text><text x="286" y="118" font-size="11" fill="#94a0ad" class="sans">Review</text><rect x="392" y="74" width="110" height="56" rx="8" fill="#1f262e" stroke="#374350" stroke-width="1"/><text x="406" y="104" font-size="20" font-weight="700" fill="#7f8b98">3</text><text x="406" y="118" font-size="11" fill="#94a0ad" class="sans">Junk</text><rect x="640" y="74" width="200" height="36" rx="8" fill="#1f262e" stroke="#374350" stroke-width="1"/><text x="652" y="98" font-size="12" fill="#6c7884">Search alerts…</text><rect x="852" y="74" width="76" height="36" rx="8" fill="#1f262e" stroke="#374350" stroke-width="1"/><text x="862" y="98" font-size="12" fill="#94a0ad">All ▾</text><rect x="32" y="160" width="896" height="440" rx="10" fill="#191f26" stroke="#374350" stroke-width="1"/><rect x="32" y="160" width="896" height="36" rx="10" fill="#1f262e"/><rect x="32" y="178" width="896" height="18" fill="#1f262e"/><text x="48" y="183" font-size="10" font-weight="700" fill="#6c7884" letter-spacing="0.7"></text><text x="98" y="183" font-size="10" font-weight="700" fill="#6c7884" letter-spacing="0.7">TIME</text><text x="228" y="183" font-size="10" font-weight="700" fill="#6c7884" letter-spacing="0.7">SOURCE</text><text x="308" y="183" font-size="10" font-weight="700" fill="#6c7884" letter-spacing="0.7">RULE</text><text x="568" y="183" font-size="10" font-weight="700" fill="#6c7884" letter-spacing="0.7">SCORE</text><text x="638" y="183" font-size="10" font-weight="700" fill="#6c7884" letter-spacing="0.7">VERDICT</text><text x="738" y="183" font-size="10" font-weight="700" fill="#6c7884" letter-spacing="0.7">TARGET</text><text x="858" y="183" font-size="10" font-weight="700" fill="#6c7884" letter-spacing="0.7">IP</text><line x1="32" y1="196" x2="928" y2="196" stroke="#374350" stroke-width="1"/><rect x="33" y="197" width="894" height="52" fill="#1f262e"/><rect x="32" y="197" width="3" height="52" fill="#d64541"/><rect x="52" y="214" width="14" height="14" rx="3" fill="#191f26" stroke="#374350" stroke-width="1"/><text x="98" y="220" font-size="12" fill="#94a0ad">2m ago</text><text x="228" y="220" font-size="12" fill="#46a3a0">wazuh</text><text x="308" y="220" font-size="13" fill="#e7ebf0">Credential dumping — LSASS access</text><text x="628" y="220" text-anchor="end" font-size="13" font-weight="700" fill="#d64541">142</text><rect x="638" y="206" width="82" height="20" rx="10" fill="#d6454122" stroke="#d64541" stroke-width="1"/><text x="679" y="220" text-anchor="middle" font-size="10" font-weight="700" fill="#d64541" letter-spacing="0.8">ESCALATE</text><text x="748" y="220" font-size="12" fill="#94a0ad">dc01</text><line x1="32" y1="249" x2="928" y2="249" stroke="#252e38" stroke-width="1"/><rect x="32" y="249" width="3" height="52" fill="#d64541"/><rect x="52" y="266" width="14" height="14" rx="3" fill="#191f26" stroke="#374350" stroke-width="1"/><text x="98" y="272" font-size="12" fill="#94a0ad">5m ago</text><text x="228" y="272" font-size="12" fill="#46a3a0">crowdstrike</text><text x="308" y="272" font-size="13" fill="#e7ebf0">Malicious process — Cobalt Strike</text><text x="628" y="272" text-anchor="end" font-size="13" font-weight="700" fill="#d64541">138</text><rect x="638" y="258" width="82" height="20" rx="10" fill="#d6454122" stroke="#d64541" stroke-width="1"/><text x="679" y="272" text-anchor="middle" font-size="10" font-weight="700" fill="#d64541" letter-spacing="0.8">ESCALATE</text><text x="748" y="272" font-size="12" fill="#94a0ad">workst-01</text><line x1="32" y1="301" x2="928" y2="301" stroke="#252e38" stroke-width="1"/><rect x="32" y="301" width="3" height="52" fill="#d99a2b"/><rect x="52" y="318" width="14" height="14" rx="3" fill="#191f26" stroke="#374350" stroke-width="1"/><text x="98" y="324" font-size="12" fill="#94a0ad">12m ago</text><text x="228" y="324" font-size="12" fill="#46a3a0">suricata</text><text x="308" y="324" font-size="13" fill="#e7ebf0">ET MALWARE Beacon C2 Activity</text><text x="628" y="324" text-anchor="end" font-size="13" font-weight="700" fill="#d99a2b">81</text><rect x="638" y="310" width="70" height="20" rx="10" fill="#d99a2b22" stroke="#d99a2b" stroke-width="1"/><text x="673" y="324" text-anchor="middle" font-size="10" font-weight="700" fill="#d99a2b" letter-spacing="0.8">REVIEW</text><text x="748" y="324" font-size="12" fill="#94a0ad">10.0.0.5</text><line x1="32" y1="353" x2="928" y2="353" stroke="#252e38" stroke-width="1"/><rect x="32" y="353" width="3" height="52" fill="#d99a2b"/><rect x="52" y="370" width="14" height="14" rx="3" fill="#191f26" stroke="#374350" stroke-width="1"/><text x="98" y="376" font-size="12" fill="#94a0ad">18m ago</text><text x="228" y="376" font-size="12" fill="#46a3a0">wazuh</text><text x="308" y="376" font-size="13" fill="#e7ebf0">Multiple failed SSH logins (>10)</text><text x="628" y="376" text-anchor="end" font-size="13" font-weight="700" fill="#d99a2b">74</text><rect x="638" y="362" width="70" height="20" rx="10" fill="#d99a2b22" stroke="#d99a2b" stroke-width="1"/><text x="673" y="376" text-anchor="middle" font-size="10" font-weight="700" fill="#d99a2b" letter-spacing="0.8">REVIEW</text><text x="748" y="376" font-size="12" fill="#94a0ad">web-02</text><line x1="32" y1="405" x2="928" y2="405" stroke="#252e38" stroke-width="1"/><rect x="32" y="405" width="3" height="52" fill="#d99a2b"/><rect x="52" y="422" width="14" height="14" rx="3" fill="#191f26" stroke="#374350" stroke-width="1"/><text x="98" y="428" font-size="12" fill="#94a0ad">31m ago</text><text x="228" y="428" font-size="12" fill="#46a3a0">elastic</text><text x="308" y="428" font-size="13" fill="#e7ebf0">Unusual process spawned from svchost</text><text x="628" y="428" text-anchor="end" font-size="13" font-weight="700" fill="#d99a2b">68</text><rect x="638" y="414" width="70" height="20" rx="10" fill="#d99a2b22" stroke="#d99a2b" stroke-width="1"/><text x="673" y="428" text-anchor="middle" font-size="10" font-weight="700" fill="#d99a2b" letter-spacing="0.8">REVIEW</text><text x="748" y="428" font-size="12" fill="#94a0ad">ws-07</text><line x1="32" y1="457" x2="928" y2="457" stroke="#252e38" stroke-width="1"/><rect x="32" y="457" width="3" height="52" fill="#7f8b98"/><rect x="52" y="474" width="14" height="14" rx="3" fill="#191f26" stroke="#374350" stroke-width="1"/><text x="98" y="480" font-size="12" fill="#94a0ad">44m ago</text><text x="228" y="480" font-size="12" fill="#46a3a0">wazuh</text><text x="308" y="480" font-size="13" fill="#e7ebf0">Successful sudo command</text><text x="628" y="480" text-anchor="end" font-size="13" font-weight="700" fill="#7f8b98">22</text><rect x="638" y="466" width="50" height="20" rx="10" fill="#7f8b9822" stroke="#7f8b98" stroke-width="1"/><text x="663" y="480" text-anchor="middle" font-size="10" font-weight="700" fill="#7f8b98" letter-spacing="0.8">JUNK</text><text x="748" y="480" font-size="12" fill="#94a0ad">dev-03</text><line x1="32" y1="509" x2="928" y2="509" stroke="#252e38" stroke-width="1"/><rect x="32" y="509" width="3" height="52" fill="#7f8b98"/><rect x="52" y="526" width="14" height="14" rx="3" fill="#191f26" stroke="#374350" stroke-width="1"/><text x="98" y="532" font-size="12" fill="#94a0ad">1h ago</text><text x="228" y="532" font-size="12" fill="#46a3a0">osquery</text><text x="308" y="532" font-size="13" fill="#e7ebf0">Network connection: process_network</text><text x="628" y="532" text-anchor="end" font-size="13" font-weight="700" fill="#7f8b98">18</text><rect x="638" y="518" width="50" height="20" rx="10" fill="#7f8b9822" stroke="#7f8b98" stroke-width="1"/><text x="663" y="532" text-anchor="middle" font-size="10" font-weight="700" fill="#7f8b98" letter-spacing="0.8">JUNK</text><text x="748" y="532" font-size="12" fill="#94a0ad">web-01</text><line x1="32" y1="561" x2="928" y2="561" stroke="#252e38" stroke-width="1"/><rect x="32" y="561" width="3" height="52" fill="#7f8b98"/><rect x="52" y="578" width="14" height="14" rx="3" fill="#191f26" stroke="#374350" stroke-width="1"/><text x="98" y="584" font-size="12" fill="#94a0ad">2h ago</text><text x="228" y="584" font-size="12" fill="#46a3a0">wazuh</text><text x="308" y="584" font-size="13" fill="#e7ebf0">Log rotation triggered</text><text x="628" y="584" text-anchor="end" font-size="13" font-weight="700" fill="#7f8b98">8</text><rect x="638" y="570" width="50" height="20" rx="10" fill="#7f8b9822" stroke="#7f8b98" stroke-width="1"/><text x="663" y="584" text-anchor="middle" font-size="10" font-weight="700" fill="#7f8b98" letter-spacing="0.8">JUNK</text><text x="748" y="584" font-size="12" fill="#94a0ad">log-01</text><text x="48" y="602" font-size="12" fill="#94a0ad">3 selected —</text><rect x="148" y="588" width="110" height="28" rx="6" fill="#1f262e" stroke="#374350" stroke-width="1"/><text x="158" y="606" font-size="12" fill="#f0a4a1">✓ True Positive</text><rect x="268" y="588" width="114" height="28" rx="6" fill="#1f262e" stroke="#374350" stroke-width="1"/><text x="278" y="606" font-size="12" fill="#7ed3a3">✗ False Positive</text><rect x="392" y="588" width="84" height="28" rx="6" fill="#1f262e" stroke="#374350" stroke-width="1"/><text x="402" y="606" font-size="12" fill="#46a3a0">💤 Snooze</text></svg>